<svg width="39" height="55" viewBox="0 0 39 55" fill="none" xmlns="http://www.w3.org/2000/svg">
<path d="M30.3696 13.6965C34.4022 10.4695 36.5264 6.423 35.1144 4.65849C33.7023 2.89396 29.2885 4.07958 25.2561 7.3066C21.2236 10.5337 19.0993 14.5801 20.5113 16.3446C21.9234 18.1091 26.3371 16.9235 30.3696 13.6965Z" fill="#29C16E"/>
<path d="M16.8451 16.8655C18.0588 15.6518 16.3414 11.9666 13.0091 8.63439C9.67694 5.30219 5.99176 3.58479 4.7781 4.79845C3.56443 6.01212 5.28184 9.6973 8.61406 13.0295C11.9463 16.3617 15.6314 18.0791 16.8451 16.8655Z" fill="#29C16E"/>
<path d="M33.1774 34.7955C34.9421 33.3837 33.7563 28.9699 30.5294 24.9374C27.3024 20.9049 23.2559 18.7806 21.4914 20.1927C19.7268 21.6047 20.9125 26.0184 24.1395 30.0508C27.3664 34.0834 31.413 36.2076 33.1774 34.7955Z" fill="#EF3C56"/>
<path d="M3.95642 36.3164C3.95642 40.517 5.62512 44.5456 8.59541 47.5158C11.5657 50.4862 15.5943 52.1549 19.7949 52.1549C28.5425 52.1549 41.5995 37.8071 33.2828 35.101C24.1582 32.1327 19.95 20.7852 18.0589 20.5731C9.36619 19.5977 3.95642 27.5691 3.95642 36.3164Z" fill="#EF3C56"/>
<path d="M0.00767529 2.3905C0.0121504 5.80557 0.929512 9.15735 2.66476 12.0987C4.4 15.0401 6.89004 17.4641 9.87698 19.1196C8.31155 19.9879 6.87523 21.0707 5.60973 22.3367C2.7708 25.1729 0.895614 28.83 0.249562 32.7904C-0.396491 36.7509 0.219299 40.8144 2.00979 44.4057C3.80027 47.9969 6.67477 50.9343 10.2266 52.802C13.7783 54.6694 17.8275 55.373 21.801 54.8125C25.7746 54.2521 29.4714 52.4564 32.3682 49.6793C35.265 46.9022 37.2149 43.2847 37.9424 39.3383C38.6699 35.3919 38.1381 31.3167 36.4218 27.6893C34.7058 24.0619 31.8923 21.0661 28.3799 19.1256C31.3709 17.4724 33.8643 15.0484 35.6017 12.1056C37.339 9.16277 38.2567 5.80843 38.2593 2.39102C38.2593 2.07704 38.1977 1.76612 38.0775 1.47602C37.9575 1.18592 37.7813 0.922334 37.5594 0.700302C37.3372 0.47827 37.0736 0.30215 36.7835 0.182003C36.4936 0.0618553 36.1827 3.38189e-05 35.8686 6.80032e-05C33.3559 -0.00665431 30.8666 0.485077 28.5454 1.44681C26.2239 2.40853 24.1162 3.82114 22.3443 5.6029C21.0784 6.86842 19.9957 8.30477 19.1275 9.87014C17.4733 6.88206 15.0496 4.39106 12.1079 2.65564C9.16627 0.920208 5.81378 0.00357359 2.39837 0.000846181C2.08449 0.000777835 1.77367 0.0625362 1.48365 0.182591C1.19363 0.302645 0.930106 0.478645 0.708108 0.700544C0.486112 0.922443 0.309997 1.1859 0.189817 1.47586C0.069636 1.76582 0.00774362 2.07662 0.00767529 2.3905ZM21.7677 16.4883C22.3 13.6447 23.6794 11.0285 25.725 8.98287C27.7705 6.93722 30.3868 5.55768 33.2302 5.02526C32.694 7.86703 31.3131 10.4811 29.2685 12.526C27.2236 14.571 24.6095 15.9518 21.7677 16.4883ZM29.2716 25.7224C31.3178 27.7655 32.6979 30.3802 33.2302 33.2224C30.3899 32.6853 27.777 31.305 25.733 29.2608C23.689 27.2167 22.3084 24.6042 21.7714 21.7638C24.6137 22.2961 27.2283 23.6761 29.2716 25.7224ZM8.99022 25.7177C11.1349 23.5618 13.9136 22.1492 16.9192 21.687C17.4827 25.835 19.3904 29.6839 22.3504 32.6439C25.3103 35.6039 29.1589 37.512 33.307 38.0756C32.9575 40.3135 32.083 42.437 30.755 44.2719C29.4272 46.1068 27.6836 47.6014 25.667 48.6328C23.6505 49.6645 21.4183 50.2039 19.1532 50.207C16.8882 50.2099 14.6546 49.6767 12.6353 48.6505C10.6159 47.6243 8.86832 46.1347 7.53546 44.3031C6.20257 42.4719 5.32232 40.3507 4.96676 38.1138C4.61117 35.8769 4.7904 33.5874 5.4897 31.433C6.18904 29.2785 7.3886 27.3206 8.99022 25.7188V25.7177ZM5.03522 5.02864C7.87574 5.56559 10.4885 6.9462 12.5327 8.99031C14.5768 11.0344 15.9574 13.6472 16.4943 16.4877C13.654 15.9507 11.0414 14.57 8.99743 12.5259C6.95347 10.4818 5.57307 7.86906 5.03626 5.02864H5.03522Z" fill="#F7F7F7"/>
</svg>
