<svg width="624" height="624" viewBox="0 0 624 624" fill="none" xmlns="http://www.w3.org/2000/svg">
<path d="M372.528 494.208H157.31C139.963 494.208 125.861 480.106 125.861 462.758V386.63C125.861 377.52 129.854 368.846 136.843 362.918L185.515 321.422H312.936L361.608 362.918C368.534 368.846 372.59 377.52 372.59 386.63V494.208H372.528Z" fill="#FF901B"/>
<path d="M372.528 494.208H157.31C139.963 494.208 125.861 480.106 125.861 462.758V386.63C125.861 377.52 129.854 368.846 136.843 362.918L185.515 321.422H312.936L361.608 362.918C368.534 368.846 372.59 377.52 372.59 386.63V494.208H372.528Z" fill="#00E7E9"/>
<path d="M125.861 446.846V462.758C125.861 480.106 139.963 494.208 157.31 494.208H372.528V478.296H157.31C139.963 478.296 125.861 464.194 125.861 446.846Z" fill="#00D1C5"/>
<path d="M361.546 362.856L312.874 321.36H293.904L342.576 362.856C349.502 368.784 353.558 377.458 353.558 386.568V494.208H372.528V386.63C372.528 377.458 368.534 368.784 361.546 362.856Z" fill="#00D1C5"/>
<path d="M205.296 334.464L248.976 365.664L292.656 334.464H205.296Z" fill="#FFF4E4"/>
<path d="M372.528 494.208H157.31C139.963 494.208 125.861 480.106 125.861 462.758V386.63C125.861 377.52 129.854 368.846 136.843 362.918L185.515 321.422H312.936L361.608 362.918C368.534 368.846 372.59 377.52 372.59 386.63V494.208H372.528Z" stroke="#171819" stroke-width="6" stroke-miterlimit="10" stroke-linecap="round" stroke-linejoin="round"/>
<path d="M252.533 449.53H203.611V494.208H252.533V449.53Z" fill="#FFDEC5"/>
<path d="M252.533 484.349H203.611V494.208H252.533V484.349Z" fill="#EFB58E"/>
<path d="M252.533 449.53H203.611V494.208H252.533V449.53Z" stroke="#171819" stroke-width="6" stroke-miterlimit="10" stroke-linecap="round" stroke-linejoin="round"/>
<path d="M169.104 335.712L210.288 393.12C210.288 393.12 220.896 360.672 248.976 365.664C208.416 335.712 205.296 334.464 205.296 334.464" stroke="#171819" stroke-width="6" stroke-miterlimit="10" stroke-linecap="round" stroke-linejoin="round"/>
<path d="M329.098 335.026L287.914 392.434C287.914 392.434 277.306 359.986 249.226 364.978C289.786 335.026 292.906 333.778 292.906 333.778" stroke="#171819" stroke-width="6" stroke-miterlimit="10" stroke-linecap="round" stroke-linejoin="round"/>
<path d="M248.976 365.664V470.434" stroke="#171819" stroke-width="6" stroke-miterlimit="10" stroke-linecap="round" stroke-linejoin="round"/>
<path d="M264.264 399.984C266.504 399.984 268.32 398.168 268.32 395.928C268.32 393.688 266.504 391.872 264.264 391.872C262.024 391.872 260.208 393.688 260.208 395.928C260.208 398.168 262.024 399.984 264.264 399.984Z" fill="#171819"/>
<path d="M264.264 426.192C266.504 426.192 268.32 424.376 268.32 422.136C268.32 419.896 266.504 418.08 264.264 418.08C262.024 418.08 260.208 419.896 260.208 422.136C260.208 424.376 262.024 426.192 264.264 426.192Z" fill="#171819"/>
<path d="M407.347 495.206H243.485C237.182 495.206 232.128 490.09 232.128 483.85V481.79C232.128 475.488 237.245 470.434 243.485 470.434H418.704V483.85C418.704 490.152 413.587 495.206 407.347 495.206Z" fill="#B0AEFA"/>
<path d="M407.347 495.206H243.485C237.182 495.206 232.128 490.09 232.128 483.85V481.79C232.128 475.488 237.245 470.434 243.485 470.434H418.704V483.85C418.704 490.152 413.587 495.206 407.347 495.206Z" stroke="#171819" stroke-width="6" stroke-miterlimit="10" stroke-linecap="round" stroke-linejoin="round"/>
<path d="M527.654 495.269H371.155C363.979 495.269 358.613 488.592 360.173 481.603L389.563 350.314C391.997 339.456 401.045 331.781 411.403 331.781H558.168C570.274 331.781 579.197 344.011 576.389 356.678L549.494 476.736C547.061 487.594 538.013 495.269 527.654 495.269Z" fill="#FFF4E4"/>
<path d="M527.654 495.269H371.155C363.979 495.269 358.613 488.592 360.173 481.603L389.563 350.314C391.997 339.456 401.045 331.781 411.403 331.781H558.168C570.274 331.781 579.197 344.011 576.389 356.678L549.494 476.736C547.061 487.594 538.013 495.269 527.654 495.269Z" fill="#DCDBFF"/>
<path d="M535.142 489.528H378.581C371.405 489.528 366.038 482.851 367.598 475.862L396.989 344.573C397.925 340.454 399.797 336.773 402.355 333.778C396.053 336.773 391.248 342.763 389.563 350.251L360.173 481.541C358.613 488.53 363.917 495.206 371.155 495.206H527.654C534.082 495.206 540.01 492.274 544.128 487.469C541.382 488.779 538.325 489.528 535.142 489.528Z" fill="#B0AEFA"/>
<path d="M372.778 481.541L402.168 350.251C404.602 339.394 413.65 331.718 424.008 331.718H411.403C401.045 331.718 391.997 339.394 389.563 350.251L360.173 481.541C358.613 488.53 363.917 495.206 371.155 495.206H383.76C376.584 495.269 371.218 488.592 372.778 481.541Z" fill="#B0AEFA"/>
<path d="M527.654 495.269H371.155C363.979 495.269 358.613 488.592 360.173 481.603L389.563 350.314C391.997 339.456 401.045 331.781 411.403 331.781H558.168C570.274 331.781 579.197 344.011 576.389 356.678L549.494 476.736C547.061 487.594 538.013 495.269 527.654 495.269Z" stroke="#171819" stroke-width="6" stroke-miterlimit="10" stroke-linecap="round" stroke-linejoin="round"/>
<path d="M481.416 402.73C481.478 401.731 481.728 400.733 481.978 399.797C480.854 399.485 479.669 399.36 478.483 399.422C470.246 399.734 462.259 407.41 460.637 416.645C459.014 425.88 464.381 433.118 472.618 432.869C480.48 432.619 488.093 425.568 490.214 416.957C484.536 414.898 480.792 409.219 481.416 402.73Z" fill="white"/>
<path d="M281.736 457.205H290.784C294.466 457.205 297.398 460.2 297.398 463.819C297.398 467.501 294.403 470.434 290.784 470.434H271.19" fill="#FFDEC5"/>
<path d="M278.928 457.205H290.784C294.466 457.205 297.398 460.2 297.398 463.819C297.398 467.501 294.403 470.434 290.784 470.434H271.19" stroke="#171819" stroke-width="6" stroke-miterlimit="10" stroke-linecap="round" stroke-linejoin="round"/>
<path d="M243.36 449.53H275.434C281.237 449.53 285.917 454.21 285.917 460.013C285.917 465.816 281.237 470.496 275.434 470.496H243.485" fill="#FFDEC5"/>
<path d="M243.36 449.53H275.434C281.237 449.53 285.917 454.21 285.917 460.013C285.917 465.816 281.237 470.496 275.434 470.496H243.485" stroke="#171819" stroke-width="6" stroke-miterlimit="10" stroke-linecap="round" stroke-linejoin="round"/>
<path d="M249.6 457.205H263.078C266.76 457.205 269.693 460.2 269.693 463.819C269.693 467.501 266.698 470.434 263.078 470.434H243.485" stroke="#171819" stroke-width="6" stroke-miterlimit="10" stroke-linecap="round" stroke-linejoin="round"/>
<path d="M177.715 439.608H203.611V494.208" stroke="#171819" stroke-width="6" stroke-miterlimit="10" stroke-linecap="round" stroke-linejoin="round"/>
<path d="M249.787 342.576H246.605C202.238 342.576 166.296 318.49 166.296 274.123V174.221H330.096V274.123C330.096 318.49 294.154 342.576 249.787 342.576Z" fill="#FFDEC5"/>
<path d="M166.608 195.25C166.608 195.25 181.085 220.21 220.834 221.645C281.611 223.766 305.635 192.379 305.635 192.379L166.608 195.25Z" fill="#EFB58E"/>
<path d="M249.787 331.781H246.605C202.238 331.781 166.296 310.19 166.296 265.824V274.123C166.296 318.49 202.238 342.576 246.605 342.576H249.787C294.154 342.576 330.096 318.49 330.096 274.123V265.824C330.096 310.19 294.154 331.781 249.787 331.781Z" fill="#EFB58E"/>
<path d="M249.787 342.576H246.605C202.238 342.576 166.296 318.49 166.296 274.123V174.221H330.096V274.123C330.096 318.49 294.154 342.576 249.787 342.576Z" stroke="#171819" stroke-width="6" stroke-miterlimit="10" stroke-linecap="round" stroke-linejoin="round"/>
<path d="M188.448 223.392C180.336 251.472 166.608 245.232 166.608 245.232V170.352H189.696C189.696 170.352 193.627 205.421 188.448 223.392Z" fill="#FF9472"/>
<path d="M190.195 214.656C191.006 208.416 191.194 201.302 191.131 194.75L166.608 195.25C166.608 195.25 173.347 206.856 190.195 214.656Z" fill="#EF7756"/>
<path d="M188.448 223.392C180.336 251.472 166.608 245.232 166.608 245.232V170.352H189.696C189.696 170.352 193.627 205.421 188.448 223.392Z" stroke="#171819" stroke-width="6" stroke-miterlimit="10" stroke-linecap="round" stroke-linejoin="round"/>
<path d="M309.878 133.099C298.022 122.367 280.363 112.695 255.715 113.381C255.403 118.248 258.835 128.794 265.075 133.973C241.613 112.133 191.131 111.946 174.907 128.295C177.278 135.845 183.955 145.517 194.314 150.509C164.798 143.707 144.206 158.371 142.522 163.613C147.701 176.53 159.432 189.821 166.608 195.25C190.819 213.408 257.65 220.459 299.083 196.435C301.454 195.063 303.638 193.69 305.635 192.379C305.386 202.925 305.822 215.031 308.256 223.455C316.368 251.535 330.096 245.295 330.096 245.295V179.088C330.096 161.616 322.858 144.831 309.878 133.099Z" fill="#FF9472"/>
<path d="M265.075 134.035C263.578 131.914 259.584 130.166 253.157 125.736C227.51 112.445 188.76 114.317 174.907 128.294C175.219 129.355 175.656 130.478 176.155 131.602C194.626 119.683 234.125 118.872 256.776 135.845C259.709 138.029 265.075 137.717 265.075 134.035Z" fill="#EF7756"/>
<path d="M194.563 151.507C194.563 151.07 194.438 150.758 194.314 150.509C193.128 150.259 188.822 149.822 179.712 148.762C158.184 148.574 143.894 159.307 142.522 163.675C142.771 164.362 143.083 165.048 143.395 165.734C150.634 159.931 168.23 152.194 189.446 156C192.192 156.437 194.75 154.315 194.563 151.507Z" fill="#EF7756"/>
<path d="M309.878 133.099C298.022 122.366 280.363 112.694 255.715 113.381C255.59 115.128 255.965 117.562 256.776 120.245C274.435 120.619 289.786 126.984 298.771 136.219C316.243 154.19 305.885 180.773 298.21 190.258C288.912 201.739 283.296 203.674 283.296 203.674C283.296 203.674 301.829 198.37 305.573 192.317C302.453 208.666 310.19 243.298 326.851 245.794C328.848 245.794 330.096 245.232 330.096 245.232V179.088C330.096 161.616 322.858 144.83 309.878 133.099Z" fill="#EF7756"/>
<path d="M316.493 139.776C304.949 126.734 285.418 112.507 255.715 113.381C255.403 118.248 258.835 128.794 265.075 133.973C241.613 112.133 191.131 111.946 174.907 128.294C177.278 135.845 183.955 145.517 194.314 150.509C164.798 143.707 144.206 158.371 142.522 163.613C147.701 176.53 159.432 189.821 166.608 195.25C190.819 213.408 257.65 220.459 299.083 196.435C301.454 195.062 303.638 193.69 305.635 192.379C305.386 202.925 305.822 215.03 308.256 223.454C316.368 251.534 330.096 245.294 330.096 245.294V175.968C330.096 162.677 325.354 149.76 316.493 139.776Z" stroke="#171819" stroke-width="6" stroke-miterlimit="10" stroke-linecap="round" stroke-linejoin="round"/>
<path d="M317.803 180.835C317.803 180.835 310.69 188.635 305.573 192.379C300.269 196.248 292.469 201.053 281.923 204.235" stroke="#171819" stroke-width="6" stroke-miterlimit="10" stroke-linecap="round" stroke-linejoin="round"/>
<path d="M207.979 246.667C215.592 245.357 223.454 245.357 231.067 246.667" stroke="#171819" stroke-width="6" stroke-miterlimit="10" stroke-linecap="round" stroke-linejoin="round"/>
<path d="M224.453 261.518C227.623 261.518 230.194 258.948 230.194 255.778C230.194 252.607 227.623 250.037 224.453 250.037C221.282 250.037 218.712 252.607 218.712 255.778C218.712 258.948 221.282 261.518 224.453 261.518Z" fill="#171819"/>
<path d="M266.885 246.667C274.498 245.357 282.36 245.357 289.973 246.667" stroke="#171819" stroke-width="6" stroke-miterlimit="10" stroke-linecap="round" stroke-linejoin="round"/>
<path d="M283.296 261.518C286.467 261.518 289.037 258.948 289.037 255.778C289.037 252.607 286.467 250.037 283.296 250.037C280.125 250.037 277.555 252.607 277.555 255.778C277.555 258.948 280.125 261.518 283.296 261.518Z" fill="#171819"/>
<path d="M238.867 279.802C240.926 283.358 244.795 285.73 249.226 285.73C253.594 285.73 257.462 283.358 259.584 279.802" stroke="#171819" stroke-width="6" stroke-miterlimit="10" stroke-linecap="round" stroke-linejoin="round"/>
<path d="M270.941 300.144C270.941 309.629 261.082 317.242 248.976 317.242C236.87 317.242 227.011 309.566 227.011 300.144H270.941Z" fill="white"/>
<path d="M270.941 300.144C270.941 309.629 261.082 317.242 248.976 317.242C236.87 317.242 227.011 309.566 227.011 300.144H270.941Z" stroke="#171819" stroke-width="6" stroke-miterlimit="10" stroke-linecap="round" stroke-linejoin="round"/>
<path d="M166.296 221.645C166.296 221.645 151.694 220.584 151.694 235.373C151.694 251.16 155.376 260.894 166.296 261.269V221.645Z" fill="#FFDEC5"/>
<path d="M166.296 221.645C166.296 221.645 151.694 220.584 151.694 235.373C151.694 251.16 155.376 260.894 166.296 261.269V221.645Z" stroke="#171819" stroke-width="6" stroke-miterlimit="10" stroke-linecap="round" stroke-linejoin="round"/>
<path d="M330.096 221.645C330.096 221.645 344.698 220.584 344.698 235.373C344.698 251.16 341.016 260.894 330.096 261.269V221.645Z" fill="#FFDEC5"/>
<path d="M330.096 221.645C330.096 221.645 344.698 220.584 344.698 235.373C344.698 251.16 341.016 260.894 330.096 261.269V221.645Z" stroke="#171819" stroke-width="6" stroke-miterlimit="10" stroke-linecap="round" stroke-linejoin="round"/>
<path d="M545.501 215.03H460.013C453.149 215.03 447.533 220.646 447.533 227.51V273.936C447.533 280.8 453.149 286.416 460.013 286.416H488.592L502.819 304.138L517.046 286.416H545.563C552.427 286.416 558.043 280.8 558.043 273.936V227.51C557.981 220.646 552.427 215.03 545.501 215.03Z" fill="#EF3C56"/>
<path d="M545.501 215.03H460.013C453.149 215.03 447.533 220.646 447.533 227.51V273.936C447.533 280.8 453.149 286.416 460.013 286.416H488.592L502.819 304.138L517.046 286.416H545.563C552.427 286.416 558.043 280.8 558.043 273.936V227.51C557.981 220.646 552.427 215.03 545.501 215.03Z" stroke="#171819" stroke-width="6" stroke-miterlimit="10" stroke-linecap="round" stroke-linejoin="round"/>
<path d="M479.856 258.71C483.199 258.71 485.909 256 485.909 252.658C485.909 249.315 483.199 246.605 479.856 246.605C476.513 246.605 473.803 249.315 473.803 252.658C473.803 256 476.513 258.71 479.856 258.71Z" fill="white"/>
<path d="M527.342 258.71C530.685 258.71 533.395 256 533.395 252.658C533.395 249.315 530.685 246.605 527.342 246.605C524 246.605 521.29 249.315 521.29 252.658C521.29 256 524 258.71 527.342 258.71Z" fill="white"/>
<path d="M503.63 258.71C506.973 258.71 509.683 256 509.683 252.658C509.683 249.315 506.973 246.605 503.63 246.605C500.288 246.605 497.578 249.315 497.578 252.658C497.578 256 500.288 258.71 503.63 258.71Z" fill="white"/>
</svg>
